<svg width="53" height="58" viewBox="0 0 53 58" fill="none" xmlns="http://www.w3.org/2000/svg">
<path d="M26.4124 0.60791C11.6681 0.60791 0.117432 7.33018 0.117432 15.9106V42.1439C0.117432 50.7243 11.6681 57.4466 26.4124 57.4466C41.1568 57.4466 52.7074 50.7243 52.7074 42.1439V15.9106C52.7074 7.33018 41.1568 0.60791 26.4124 0.60791ZM48.3249 29.0273C48.3249 31.6561 46.1665 34.3368 42.4058 36.3835C38.1712 38.6871 32.4904 39.9578 26.4124 39.9578C20.3344 39.9578 14.6536 38.6871 10.419 36.3835C6.65831 34.3368 4.49993 31.6561 4.49993 29.0273V24.4802C9.17277 28.5791 17.1626 31.2134 26.4124 31.2134C35.6622 31.2134 43.6521 28.5682 48.3249 24.4802V29.0273ZM42.4058 49.5001C38.1712 51.8037 32.4904 53.0744 26.4124 53.0744C20.3344 53.0744 14.6536 51.8037 10.419 49.5001C6.65831 47.4534 4.49993 44.7727 4.49993 42.1439V37.5968C9.17277 41.6957 17.1626 44.33 26.4124 44.33C35.6622 44.33 43.6521 41.6848 48.3249 37.5968V42.1439C48.3249 44.7727 46.1665 47.4534 42.4058 49.5001Z" fill="url(#paint0_linear_400_30)"/>
<defs>
<linearGradient id="paint0_linear_400_30" x1="26.4124" y1="0.60791" x2="26.4124" y2="57.4466" gradientUnits="userSpaceOnUse">
<stop stop-color="#3D25AD"/>
<stop offset="0.296875" stop-color="#583ED3"/>
</linearGradient>
</defs>
</svg>
