<svg width="26" height="27" viewBox="0 0 26 27" fill="none" xmlns="http://www.w3.org/2000/svg">
<g filter="url(#filter0_d_400_35)">
<path d="M15.139 12.5772L19.5903 12.6607C20.462 12.6607 21.3151 12.5865 22.1497 12.4381C22.2239 12.6236 22.261 12.7812 22.261 12.911L22.2054 13.2449C21.5006 13.5416 21.1111 14.1444 21.0369 15.0532C20.9071 16.3144 20.8422 18.0949 20.8422 20.3947C19.7294 20.3947 18.4404 20.5338 16.9752 20.812C15.51 21.1087 14.3415 21.2571 13.4698 21.2571C10.2798 21.2571 7.75743 20.2648 5.90276 18.2803C4.06663 16.2773 3.14857 13.7642 3.14857 10.7411C3.14857 7.69941 4.15009 5.18632 6.15314 3.20182C8.15619 1.21732 10.7156 0.225067 13.8315 0.225067C16.3539 0.225067 18.5887 0.493995 20.5361 1.03185C20.666 1.06894 20.7309 1.13386 20.7309 1.22659C20.7309 1.31933 20.7216 1.43988 20.7031 1.58825C20.7031 1.73663 20.6845 1.94992 20.6474 2.22812C20.6289 2.48777 20.6103 2.78452 20.5918 3.11836C20.5547 3.82314 20.5361 4.75048 20.5361 5.90037C20.4063 5.97456 20.2301 6.01166 20.0076 6.01166C19.785 6.01166 19.6088 5.98384 19.479 5.92819C19.1451 4.42591 18.904 3.4893 18.7557 3.11836C17.2905 1.85718 15.51 1.22659 13.4142 1.22659C11.337 1.22659 9.60284 1.96846 8.21183 3.4522C6.83937 4.93594 6.15314 6.96681 6.15314 9.54481C6.15314 11.3624 6.44989 13.0687 7.04338 14.6637C7.65543 16.2587 8.55495 17.5756 9.74194 18.6142C10.9475 19.6342 12.3385 20.1443 13.915 20.1443C15.51 20.1443 17.0308 19.8104 18.4775 19.1428V17.4457C18.4775 16.0547 18.4218 14.7935 18.3105 13.6622C17.3647 13.5509 16.3075 13.4953 15.139 13.4953C15.0649 13.3654 15.0278 13.2171 15.0278 13.0501L15.139 12.5772Z" fill="url(#paint0_linear_400_35)" shape-rendering="crispEdges"/>
</g>
<defs>
<filter id="filter0_d_400_35" x="0.366547" y="0.225098" width="24.6765" height="26.5963" filterUnits="userSpaceOnUse" color-interpolation-filters="sRGB">
<feFlood flood-opacity="0" result="BackgroundImageFix"/>
<feColorMatrix in="SourceAlpha" type="matrix" values="0 0 0 0 0 0 0 0 0 0 0 0 0 0 0 0 0 0 127 0" result="hardAlpha"/>
<feOffset dy="2.78201"/>
<feGaussianBlur stdDeviation="1.39101"/>
<feComposite in2="hardAlpha" operator="out"/>
<feColorMatrix type="matrix" values="0 0 0 0 0 0 0 0 0 0 0 0 0 0 0 0 0 0 0.25 0"/>
<feBlend mode="normal" in2="BackgroundImageFix" result="effect1_dropShadow_400_35"/>
<feBlend mode="normal" in="SourceGraphic" in2="effect1_dropShadow_400_35" result="shape"/>
</filter>
<linearGradient id="paint0_linear_400_35" x1="-15.7291" y1="-9.45715" x2="42.5388" y2="35.8975" gradientUnits="userSpaceOnUse">
<stop stop-color="white"/>
<stop offset="1" stop-color="white" stop-opacity="0"/>
</linearGradient>
</defs>
</svg>
