<svg width="181" height="174" viewBox="0 0 181 174" fill="none" xmlns="http://www.w3.org/2000/svg">
<g filter="url(#filter0_d_393_47)">
<rect x="4" width="173" height="166" fill="url(#paint0_linear_393_47)" fill-opacity="0.5" shape-rendering="crispEdges"/>
<rect x="4.5" y="0.5" width="172" height="165" stroke="url(#paint1_linear_393_47)" stroke-opacity="0.5" shape-rendering="crispEdges"/>
</g>
<g filter="url(#filter1_d_393_47)">
<rect x="31" y="21" width="116" height="112" fill="url(#paint2_linear_393_47)" fill-opacity="0.5" shape-rendering="crispEdges"/>
</g>
<g filter="url(#filter2_d_393_47)">
<rect x="48" y="44" width="82" height="66" fill="url(#paint3_linear_393_47)" fill-opacity="0.5" shape-rendering="crispEdges"/>
</g>
<g filter="url(#filter3_d_393_47)">
<path d="M91.9523 76.32L98.3523 76.44C99.6057 76.44 100.832 76.3333 102.032 76.12C102.139 76.3867 102.192 76.6133 102.192 76.8L102.112 77.28C101.099 77.7067 100.539 78.5733 100.432 79.88C100.246 81.6933 100.152 84.2533 100.152 87.56C98.5523 87.56 96.699 87.76 94.5923 88.16C92.4857 88.5867 90.8057 88.8 89.5523 88.8C84.9657 88.8 81.339 87.3733 78.6723 84.52C76.0323 81.64 74.7123 78.0267 74.7123 73.68C74.7123 69.3067 76.1523 65.6933 79.0323 62.84C81.9123 59.9867 85.5923 58.56 90.0723 58.56C93.699 58.56 96.9123 58.9467 99.7123 59.72C99.899 59.7733 99.9923 59.8667 99.9923 60C99.9923 60.1333 99.979 60.3067 99.9523 60.52C99.9523 60.7333 99.9257 61.04 99.8723 61.44C99.8457 61.8133 99.819 62.24 99.7923 62.72C99.739 63.7333 99.7123 65.0667 99.7123 66.72C99.5257 66.8267 99.2723 66.88 98.9523 66.88C98.6323 66.88 98.379 66.84 98.1923 66.76C97.7123 64.6 97.3657 63.2533 97.1523 62.72C95.0457 60.9067 92.4857 60 89.4723 60C86.4857 60 83.9923 61.0667 81.9923 63.2C80.019 65.3333 79.0323 68.2533 79.0323 71.96C79.0323 74.5733 79.459 77.0267 80.3123 79.32C81.1923 81.6133 82.4857 83.5067 84.1923 85C85.9257 86.4667 87.9257 87.2 90.1923 87.2C92.4857 87.2 94.6723 86.72 96.7523 85.76V83.32C96.7523 81.32 96.6723 79.5067 96.5123 77.88C95.1523 77.72 93.6323 77.64 91.9523 77.64C91.8457 77.4533 91.7923 77.24 91.7923 77L91.9523 76.32Z" fill="url(#paint4_linear_393_47)" shape-rendering="crispEdges"/>
</g>
<defs>
<filter id="filter0_d_393_47" x="0" y="0" width="181" height="174" filterUnits="userSpaceOnUse" color-interpolation-filters="sRGB">
<feFlood flood-opacity="0" result="BackgroundImageFix"/>
<feColorMatrix in="SourceAlpha" type="matrix" values="0 0 0 0 0 0 0 0 0 0 0 0 0 0 0 0 0 0 127 0" result="hardAlpha"/>
<feOffset dy="4"/>
<feGaussianBlur stdDeviation="2"/>
<feComposite in2="hardAlpha" operator="out"/>
<feColorMatrix type="matrix" values="0 0 0 0 0 0 0 0 0 0 0 0 0 0 0 0 0 0 0.25 0"/>
<feBlend mode="normal" in2="BackgroundImageFix" result="effect1_dropShadow_393_47"/>
<feBlend mode="normal" in="SourceGraphic" in2="effect1_dropShadow_393_47" result="shape"/>
</filter>
<filter id="filter1_d_393_47" x="27" y="21" width="124" height="120" filterUnits="userSpaceOnUse" color-interpolation-filters="sRGB">
<feFlood flood-opacity="0" result="BackgroundImageFix"/>
<feColorMatrix in="SourceAlpha" type="matrix" values="0 0 0 0 0 0 0 0 0 0 0 0 0 0 0 0 0 0 127 0" result="hardAlpha"/>
<feOffset dy="4"/>
<feGaussianBlur stdDeviation="2"/>
<feComposite in2="hardAlpha" operator="out"/>
<feColorMatrix type="matrix" values="0 0 0 0 0 0 0 0 0 0 0 0 0 0 0 0 0 0 0.25 0"/>
<feBlend mode="normal" in2="BackgroundImageFix" result="effect1_dropShadow_393_47"/>
<feBlend mode="normal" in="SourceGraphic" in2="effect1_dropShadow_393_47" result="shape"/>
</filter>
<filter id="filter2_d_393_47" x="44" y="44" width="90" height="74" filterUnits="userSpaceOnUse" color-interpolation-filters="sRGB">
<feFlood flood-opacity="0" result="BackgroundImageFix"/>
<feColorMatrix in="SourceAlpha" type="matrix" values="0 0 0 0 0 0 0 0 0 0 0 0 0 0 0 0 0 0 127 0" result="hardAlpha"/>
<feOffset dy="4"/>
<feGaussianBlur stdDeviation="2"/>
<feComposite in2="hardAlpha" operator="out"/>
<feColorMatrix type="matrix" values="0 0 0 0 0 0 0 0 0 0 0 0 0 0 0 0 0 0 0.25 0"/>
<feBlend mode="normal" in2="BackgroundImageFix" result="effect1_dropShadow_393_47"/>
<feBlend mode="normal" in="SourceGraphic" in2="effect1_dropShadow_393_47" result="shape"/>
</filter>
<filter id="filter3_d_393_47" x="70.7123" y="58.5601" width="35.48" height="38.24" filterUnits="userSpaceOnUse" color-interpolation-filters="sRGB">
<feFlood flood-opacity="0" result="BackgroundImageFix"/>
<feColorMatrix in="SourceAlpha" type="matrix" values="0 0 0 0 0 0 0 0 0 0 0 0 0 0 0 0 0 0 127 0" result="hardAlpha"/>
<feOffset dy="4"/>
<feGaussianBlur stdDeviation="2"/>
<feComposite in2="hardAlpha" operator="out"/>
<feColorMatrix type="matrix" values="0 0 0 0 0 0 0 0 0 0 0 0 0 0 0 0 0 0 0.25 0"/>
<feBlend mode="normal" in2="BackgroundImageFix" result="effect1_dropShadow_393_47"/>
<feBlend mode="normal" in="SourceGraphic" in2="effect1_dropShadow_393_47" result="shape"/>
</filter>
<linearGradient id="paint0_linear_393_47" x1="4" y1="0" x2="177" y2="166" gradientUnits="userSpaceOnUse">
<stop stop-color="#4C298A" stop-opacity="0.5"/>
<stop offset="1" stop-color="#1F0A47"/>
</linearGradient>
<linearGradient id="paint1_linear_393_47" x1="90.5" y1="0" x2="91" y2="70" gradientUnits="userSpaceOnUse">
<stop stop-color="#BD1B56"/>
<stop offset="1" stop-color="#583ED3"/>
</linearGradient>
<linearGradient id="paint2_linear_393_47" x1="31" y1="32" x2="147" y2="133" gradientUnits="userSpaceOnUse">
<stop stop-color="#523585"/>
<stop offset="1" stop-color="#4C298A" stop-opacity="0"/>
</linearGradient>
<linearGradient id="paint3_linear_393_47" x1="48" y1="50.4821" x2="116.948" y2="122.496" gradientUnits="userSpaceOnUse">
<stop stop-color="#8152D2"/>
<stop offset="1" stop-color="#320A78" stop-opacity="0"/>
</linearGradient>
<linearGradient id="paint4_linear_393_47" x1="48" y1="44.5" x2="131" y2="109" gradientUnits="userSpaceOnUse">
<stop stop-color="white"/>
<stop offset="1" stop-color="white" stop-opacity="0"/>
</linearGradient>
</defs>
</svg>
