<svg width="53" height="53" viewBox="0 0 53 53" fill="none" xmlns="http://www.w3.org/2000/svg">
<path d="M48.6548 0.20166H5.18588C4.03302 0.20166 2.92737 0.659635 2.11217 1.47484C1.29696 2.29004 0.838989 3.39569 0.838989 4.54856V48.0175C0.838989 49.1704 1.29696 50.276 2.11217 51.0912C2.92737 51.9064 4.03302 52.3644 5.18588 52.3644H34.7149C35.2858 52.3653 35.8513 52.2532 36.3786 52.0345C36.906 51.8158 37.3849 51.4949 37.7876 51.0902L51.7275 37.1503C52.1322 36.7475 52.4532 36.2687 52.6718 35.7413C52.8905 35.2139 53.0027 34.6485 53.0017 34.0776V4.54856C53.0017 3.39569 52.5438 2.29004 51.7286 1.47484C50.9134 0.659635 49.8077 0.20166 48.6548 0.20166ZM18.2266 15.4158H35.6142C36.1906 15.4158 36.7434 15.6448 37.151 16.0524C37.5586 16.46 37.7876 17.0128 37.7876 17.5892C37.7876 18.1657 37.5586 18.7185 37.151 19.1261C36.7434 19.5337 36.1906 19.7627 35.6142 19.7627H18.2266C17.6501 19.7627 17.0973 19.5337 16.6897 19.1261C16.2821 18.7185 16.0531 18.1657 16.0531 17.5892C16.0531 17.0128 16.2821 16.46 16.6897 16.0524C17.0973 15.6448 17.6501 15.4158 18.2266 15.4158ZM26.9204 37.1503H18.2266C17.6501 37.1503 17.0973 36.9213 16.6897 36.5137C16.2821 36.1061 16.0531 35.5533 16.0531 34.9768C16.0531 34.4004 16.2821 33.8476 16.6897 33.44C17.0973 33.0324 17.6501 32.8034 18.2266 32.8034H26.9204C27.4968 32.8034 28.0496 33.0324 28.4572 33.44C28.8648 33.8476 29.0938 34.4004 29.0938 34.9768C29.0938 35.5533 28.8648 36.1061 28.4572 36.5137C28.0496 36.9213 27.4968 37.1503 26.9204 37.1503ZM18.2266 28.4565C17.6501 28.4565 17.0973 28.2275 16.6897 27.8199C16.2821 27.4123 16.0531 26.8595 16.0531 26.283C16.0531 25.7066 16.2821 25.1538 16.6897 24.7462C17.0973 24.3386 17.6501 24.1096 18.2266 24.1096H35.6142C36.1906 24.1096 36.7434 24.3386 37.151 24.7462C37.5586 25.1538 37.7876 25.7066 37.7876 26.283C37.7876 26.8595 37.5586 27.4123 37.151 27.8199C36.7434 28.2275 36.1906 28.4565 35.6142 28.4565H18.2266ZM35.6142 47.1182V34.9768H47.7583L35.6142 47.1182Z" fill="url(#paint0_linear_400_28)"/>
<defs>
<linearGradient id="paint0_linear_400_28" x1="26.9204" y1="0.20166" x2="26.9204" y2="52.3644" gradientUnits="userSpaceOnUse">
<stop stop-color="#3D25AD"/>
<stop offset="0.296875" stop-color="#583ED3"/>
</linearGradient>
</defs>
</svg>
