<svg width="15" height="16" viewBox="0 0 15 16" fill="none" xmlns="http://www.w3.org/2000/svg">
<path d="M10.5416 11.1283C9.11997 12.469 7.66705 13.3473 7.42847 13.4871C7.18988 13.3473 5.73696 12.469 4.31535 11.1283C2.79725 9.69653 1.42859 7.8439 1.42847 5.87527C1.42948 4.96897 1.76457 4.10687 2.34994 3.47647C2.93415 2.84732 3.71797 2.50107 4.52699 2.5C5.56387 2.5001 6.45898 2.97684 7.01831 3.77909L7.42847 4.36737L7.83862 3.77909C8.39795 2.97684 9.29306 2.50009 10.3299 2.5C11.139 2.50107 11.9228 2.84732 12.507 3.47647C13.0924 4.10693 13.4275 4.96914 13.4285 5.87552C13.4282 7.84406 12.0596 9.69659 10.5416 11.1283Z" stroke="#583ED3"/>
</svg>
